<svg viewBox="0 0 350 199.46608177500414" preserveAspectRatio="xMidYMid meet" class="css-8aabad" id="bcddeheg"><defs id="SvgjsDefs1618"></defs><g id="SvgjsG1619" featurekey="aMgJeN-0" transform="matrix(1.6474463929116483,0,0,1.6474463929116483,92.62767406990834,-15.087312482588544)" fill="#111"><path xmlns="http://www.w3.org/2000/svg" d="M64.427,49.68c0-7.638-6.192-13.83-13.83-13.83s-13.83,6.192-13.83,13.83c0,7.638,6.192,13.83,13.83,13.83  S64.427,57.318,64.427,49.68z M48.361,41.848c-2.372,1.271-4.085,3.133-5.158,4.575c-0.407,0.547-1.273,0.165-1.14-0.503  c0.817-4.081,3.712-5.111,5.949-5.269C48.695,40.603,48.964,41.525,48.361,41.848z M39.273,36.327l-5.169-4.885  c0.602-1.094,0.975-2.332,0.975-3.669c0-4.235-3.43-7.665-7.666-7.665s-7.672,3.428-7.672,7.665s3.435,7.668,7.672,7.668  c1.493,0,2.875-0.445,4.054-1.183l5.162,4.88C37.408,38.106,38.289,37.161,39.273,36.327z M26.943,23.318  c-1.745,0.935-3.004,2.304-3.793,3.365c-0.299,0.402-0.937,0.121-0.838-0.37c0.601-3.001,2.73-3.759,4.375-3.875  C27.188,22.402,27.386,23.08,26.943,23.318z M61.138,35.716l6.869-11.559c0.676,0.193,1.378,0.333,2.114,0.333  c4.244,0,7.674-3.432,7.674-7.668c0-4.235-3.43-7.664-7.674-7.664c-4.236,0-7.665,3.428-7.665,7.664c0,2.103,0.848,4.003,2.219,5.39  l-6.847,11.527C59.004,34.271,60.114,34.937,61.138,35.716z M65.302,15.11c0.601-3.001,2.73-3.759,4.375-3.875  c0.502-0.036,0.7,0.642,0.256,0.88c-1.745,0.935-3.004,2.304-3.793,3.365C65.841,15.882,65.203,15.601,65.302,15.11z M84.828,45.393  c-3.298,0-6.091,2.096-7.175,5.017l-9.543-0.942c0,0.072,0.011,0.141,0.011,0.212c0,1.244-0.137,2.459-0.385,3.632l9.539,0.942  c0.577,3.66,3.728,6.466,7.552,6.466c4.235,0,7.663-3.428,7.663-7.663C92.49,48.825,89.062,45.393,84.828,45.393z M84.457,48.342  c-1.745,0.935-3.004,2.304-3.793,3.365c-0.299,0.402-0.937,0.121-0.838-0.37c0.601-3.001,2.73-3.759,4.375-3.875  C84.703,47.427,84.901,48.104,84.457,48.342z M58.493,75.538l-2.134-9.323c-1.204,0.419-2.457,0.72-3.764,0.87l2.137,9.324  c-2.45,1.282-4.141,3.815-4.141,6.773c0,4.235,3.428,7.661,7.672,7.661c4.235,0,7.663-3.428,7.663-7.661  C65.931,79.025,62.619,75.66,58.493,75.538z M57.44,78.943c-1.745,0.935-3.004,2.304-3.793,3.365  c-0.299,0.402-0.937,0.121-0.838-0.37c0.601-3.001,2.73-3.759,4.375-3.875C57.686,78.027,57.884,78.705,57.44,78.943z   M33.469,53.381l-11.879,3.98c-1.371-2.094-3.73-3.482-6.415-3.482c-4.236,0-7.665,3.43-7.665,7.665c0,4.24,3.428,7.67,7.665,7.67  c4.233,0,7.67-3.43,7.67-7.67c0-0.177-0.038-0.34-0.052-0.514l11.917-3.99C34.172,55.88,33.745,54.659,33.469,53.381z   M14.773,57.314c-1.745,0.935-3.004,2.304-3.793,3.365c-0.299,0.402-0.937,0.121-0.838-0.37c0.601-3.001,2.73-3.759,4.375-3.875  C15.019,56.398,15.217,57.076,14.773,57.314z"></path></g><g id="SvgjsG1620" featurekey="8L6ael-0" transform="matrix(2.963188988495384,0,0,2.963188988495384,-4.800370061128303,140.20230765693094)" fill="#111"><path d="M11.1 14.1 l3.02 4.62 q0.22 0.36 0.02 0.72 q-0.08 0.16 -0.25 0.26 t-0.35 0.1 l-1.82 0 q-0.18 0 -0.34 -0.09 t-0.24 -0.23 l-3.04 -4.82 l-3.56 0 l0 4.44 q0 0.28 -0.21 0.49 t-0.49 0.21 l-1.52 0 q-0.28 0 -0.49 -0.21 t-0.21 -0.49 l0 -6.58 q0 -0.28 0.21 -0.49 t0.49 -0.21 l6.16 0 q1.76 0 2.34 -1 q0.2 -0.32 0.2 -0.92 q0 -0.94 -0.62 -1.48 q-0.64 -0.58 -1.84 -0.58 l-6.24 0 q-0.28 0 -0.49 -0.21 t-0.21 -0.49 l0 -1.44 q0 -0.28 0.21 -0.49 t0.49 -0.21 l6.42 0 q2.34 0 3.74 1.32 q1.46 1.32 1.46 3.58 q0 1.46 -0.64 2.49 t-1.86 1.57 z M31.467999999999996 18.86 q0.14 0.32 -0.07 0.65 t-0.57 0.33 l-13.32 0 q-0.18 0 -0.34 -0.09 t-0.24 -0.23 q-0.22 -0.32 -0.06 -0.66 l0.62 -1.46 q0.08 -0.2 0.26 -0.32 t0.38 -0.12 l9.32 0 l-3.28 -7.84 l-2.68 6.4 q-0.08 0.2 -0.25 0.31 t-0.39 0.11 l-1.68 0 q-0.38 0 -0.6 -0.32 q-0.08 -0.14 -0.1 -0.32 t0.04 -0.34 l4.06 -9.52 q0.08 -0.2 0.25 -0.32 t0.39 -0.12 l1.92 0 q0.22 0 0.39 0.12 t0.25 0.32 z M42.876000000000005 7.9 q-0.24 -0.04 -0.4 -0.24 t-0.16 -0.44 l0 -1.52 q0 -0.3 0.24 -0.54 q0.26 -0.2 0.58 -0.14 q2.36 0.4 4 2.1 q0.84 0.88 1.36 2 q0.08 0.14 0.07 0.32 t-0.11 0.34 t-0.25 0.25 t-0.33 0.09 l-1.7 0 q-0.18 0 -0.34 -0.09 t-0.26 -0.25 q-0.28 -0.42 -0.52 -0.66 q-0.9 -0.92 -2.18 -1.22 z M40.836 5.16 q0.24 0.24 0.24 0.54 l0 1.52 q0 0.24 -0.16 0.44 t-0.4 0.24 q-1.28 0.3 -2.18 1.22 q-1.24 1.34 -1.24 3.35 t1.24 3.35 q0.86 0.92 2.18 1.22 q0.24 0.04 0.4 0.24 t0.16 0.44 l0 1.52 q0 0.32 -0.26 0.54 q-0.2 0.16 -0.44 0.16 l-0.12 0 q-2.4 -0.44 -4 -2.12 q-2.08 -2.14 -2.08 -5.35 t2.08 -5.35 q1.62 -1.7 4 -2.1 q0.32 -0.06 0.58 0.14 z M49.196 12.059999999999999 q0.02 0.14 0.02 0.42 q0 0.44 -0.06 1.02 q-0.3 2.54 -2.02 4.32 q-1.64 1.7 -4 2.12 l-0.12 0 q-0.24 0 -0.46 -0.16 q-0.24 -0.24 -0.24 -0.54 l0 -1.52 q0 -0.24 0.16 -0.44 t0.4 -0.24 q1.32 -0.3 2.18 -1.22 q0.7 -0.74 1 -1.7 l-4.24 0 q-0.3 0 -0.5 -0.2 t-0.2 -0.5 l0 -1.42 q0 -0.28 0.2 -0.49 t0.5 -0.21 l6.68 0 q0.28 0 0.48 0.19 t0.22 0.47 l0 0.1 z M68.932 12.42 q0.86 0.54 1.31 1.32 t0.45 1.74 q0 2.26 -1.72 3.46 q-1.16 0.84 -3.14 1.06 l-0.08 0 q-0.28 0 -0.46 -0.18 q-0.24 -0.22 -0.24 -0.52 l0 -1.44 q0 -0.26 0.18 -0.46 t0.44 -0.24 q0.94 -0.1 1.46 -0.44 q0.4 -0.24 0.54 -0.62 q0.08 -0.22 0.08 -0.56 q0 -0.22 -0.08 -0.38 t-0.28 -0.3 q-0.58 -0.4 -1.5 -0.68 l-0.32 -0.1 q-1 -0.28 -1.84 -0.46 q-0.18 -0.04 -0.58 -0.14 l-0.22 -0.06 q-0.72 -0.18 -1.52 -0.5 q-1.18 -0.5 -1.94 -1.26 q-0.88 -0.88 -0.88 -2.32 q0 -1.98 1.52 -3.22 q1.04 -0.88 2.92 -1.12 q0.32 -0.04 0.55 0.18 t0.23 0.52 l0 1.44 q0 0.26 -0.16 0.46 t-0.41 0.23 t-0.51 0.11 q-0.58 0.22 -0.82 0.43 t-0.34 0.43 q-0.1 0.34 -0.1 0.64 q0 0.16 0.18 0.34 q0.28 0.28 0.82 0.5 q0.24 0.1 0.84 0.3 l2.5 0.62 l0.12 0.04 q0.94 0.26 1.36 0.4 q0.94 0.32 1.64 0.78 z M65.592 7.9 q-0.24 -0.06 -0.39 -0.25 t-0.15 -0.45 l0 -1.46 q0 -0.32 0.26 -0.54 q0.1 -0.1 0.26 -0.13 t0.3 -0.01 q1.76 0.28 2.86 1.2 q1.5 1.24 1.6 3.16 q0.02 0.28 -0.19 0.51 t-0.51 0.23 l-1.56 0 q-0.26 0 -0.46 -0.18 t-0.22 -0.44 q-0.08 -0.52 -0.34 -0.86 q-0.42 -0.5 -1.3 -0.76 q-0.06 0 -0.08 -0.02 l-0.08 0 z M63.251999999999995 17.08 q0.24 0.04 0.4 0.24 t0.16 0.44 l0 1.48 q0 0.32 -0.24 0.54 q-0.2 0.16 -0.46 0.16 l-0.1 0 q-1.86 -0.28 -3.06 -1.22 q-1.56 -1.24 -1.76 -3.46 q-0.04 -0.32 0.18 -0.55 t0.52 -0.23 l1.58 0 q0.28 0 0.48 0.19 t0.22 0.47 q0.06 1 0.98 1.54 q0.42 0.24 1.1 0.4 z M87.94 18.86 q0.14 0.32 -0.07 0.65 t-0.57 0.33 l-13.32 0 q-0.18 0 -0.34 -0.09 t-0.24 -0.23 q-0.22 -0.32 -0.06 -0.66 l0.62 -1.46 q0.08 -0.2 0.26 -0.32 t0.38 -0.12 l9.32 0 l-3.28 -7.84 l-2.68 6.4 q-0.08 0.2 -0.25 0.31 t-0.39 0.11 l-1.68 0 q-0.38 0 -0.6 -0.32 q-0.08 -0.14 -0.1 -0.32 t0.04 -0.34 l4.06 -9.52 q0.08 -0.2 0.25 -0.32 t0.39 -0.12 l1.92 0 q0.22 0 0.39 0.12 t0.25 0.32 z M104.648 18.86 q0.14 0.32 -0.07 0.65 t-0.57 0.33 l-13.32 0 q-0.18 0 -0.34 -0.09 t-0.24 -0.23 q-0.22 -0.32 -0.06 -0.66 l0.62 -1.46 q0.08 -0.2 0.26 -0.32 t0.38 -0.12 l9.32 0 l-3.28 -7.84 l-2.68 6.4 q-0.08 0.2 -0.25 0.31 t-0.39 0.11 l-1.68 0 q-0.38 0 -0.6 -0.32 q-0.08 -0.14 -0.1 -0.32 t0.04 -0.34 l4.06 -9.52 q0.08 -0.2 0.25 -0.32 t0.39 -0.12 l1.92 0 q0.22 0 0.39 0.12 t0.25 0.32 z M117.976 12.42 q0.86 0.54 1.31 1.32 t0.45 1.74 q0 2.26 -1.72 3.46 q-1.16 0.84 -3.14 1.06 l-0.08 0 q-0.28 0 -0.46 -0.18 q-0.24 -0.22 -0.24 -0.52 l0 -1.44 q0 -0.26 0.18 -0.46 t0.44 -0.24 q0.94 -0.1 1.46 -0.44 q0.4 -0.24 0.54 -0.62 q0.08 -0.22 0.08 -0.56 q0 -0.22 -0.08 -0.38 t-0.28 -0.3 q-0.58 -0.4 -1.5 -0.68 l-0.32 -0.1 q-1 -0.28 -1.84 -0.46 q-0.18 -0.04 -0.58 -0.14 l-0.22 -0.06 q-0.72 -0.18 -1.52 -0.5 q-1.18 -0.5 -1.94 -1.26 q-0.88 -0.88 -0.88 -2.32 q0 -1.98 1.52 -3.22 q1.04 -0.88 2.92 -1.12 q0.32 -0.04 0.55 0.18 t0.23 0.52 l0 1.44 q0 0.26 -0.16 0.46 t-0.41 0.23 t-0.51 0.11 q-0.58 0.22 -0.82 0.43 t-0.34 0.43 q-0.1 0.34 -0.1 0.64 q0 0.16 0.18 0.34 q0.28 0.28 0.82 0.5 q0.24 0.1 0.84 0.3 l2.5 0.62 l0.12 0.04 q0.94 0.26 1.36 0.4 q0.94 0.32 1.64 0.78 z M114.636 7.9 q-0.24 -0.06 -0.39 -0.25 t-0.15 -0.45 l0 -1.46 q0 -0.32 0.26 -0.54 q0.1 -0.1 0.26 -0.13 t0.3 -0.01 q1.76 0.28 2.86 1.2 q1.5 1.24 1.6 3.16 q0.02 0.28 -0.19 0.51 t-0.51 0.23 l-1.56 0 q-0.26 0 -0.46 -0.18 t-0.22 -0.44 q-0.08 -0.52 -0.34 -0.86 q-0.42 -0.5 -1.3 -0.76 q-0.06 0 -0.08 -0.02 l-0.08 0 z M112.29599999999999 17.08 q0.24 0.04 0.4 0.24 t0.16 0.44 l0 1.48 q0 0.32 -0.24 0.54 q-0.2 0.16 -0.46 0.16 l-0.1 0 q-1.86 -0.28 -3.06 -1.22 q-1.56 -1.24 -1.76 -3.46 q-0.04 -0.32 0.18 -0.55 t0.52 -0.23 l1.58 0 q0.28 0 0.48 0.19 t0.22 0.47 q0.06 1 0.98 1.54 q0.42 0.24 1.1 0.4 z"></path></g></svg>