<?xml version="1.0" encoding="UTF-8" standalone="no"?>
<svg
   viewBox="0 0 511.99994 512.00001"
   preserveAspectRatio="xMidYMid"
   class="css-8aabad"
   id="bcddeheg"
   version="1.1"
   width="511.99994"
   height="512"
   xmlns="http://www.w3.org/2000/svg"
   xmlns:svg="http://www.w3.org/2000/svg">
  <defs
     id="SvgjsDefs1618" />
  <g
     id="SvgjsG1619"
     featurekey="aMgJeN-0"
     transform="matrix(1.6474464,0,0,1.6474464,652.09332,25.48096)"
     fill="#111111">
    <path
       d="m -187.66705,138.70567 c 0,-29.06003 -22.64503,-52.618511 -50.57829,-52.618511 -27.93326,0 -50.57829,23.558481 -50.57829,52.618511 0,29.06002 22.64503,52.6185 50.57829,52.6185 27.93326,0 50.57829,-23.55848 50.57829,-52.6185 z m -58.75566,-29.79813 c -8.67474,4.83572 -14.93943,11.92001 -18.86354,17.40633 -1.48846,2.08116 -4.65555,0.62777 -4.16915,-1.91374 2.98789,-15.52684 13.57532,-19.44564 21.75635,-20.04678 2.49782,-0.18262 3.4816,3.32528 1.27634,4.55419 z M -279.65883,87.901984 -298.5626,69.316198 c 2.2016,-4.162303 3.56572,-8.872477 3.56572,-13.959313 0,-16.112754 -12.54401,-29.162753 -28.03566,-29.162753 -15.49166,0 -28.0576,13.04239 -28.0576,29.162753 0,16.120363 12.56228,29.174166 28.0576,29.174166 5.46011,0 10.51428,-1.693075 14.82605,-4.500918 l 18.87818,18.566763 c 2.84891,-3.926414 6.07085,-7.521822 9.66948,-10.694912 z M -324.7514,38.407105 c -6.38171,3.557361 -10.98606,8.765947 -13.87154,12.802695 -1.09349,1.529475 -3.42675,0.460365 -3.06469,-1.407725 2.19794,-11.417798 9.984,-14.301734 16,-14.743075 1.83223,-0.136968 2.55634,2.442595 0.93623,3.348105 z m 125.056,47.170229 25.12092,-43.978116 c 2.47222,0.734301 5.03954,1.266954 7.7312,1.266954 15.52091,0 28.06491,-13.057609 28.06491,-29.174167 0,-16.1127543 -12.544,-29.158948 -28.06491,-29.158948 -15.49166,0 -28.032,13.0423897 -28.032,29.158948 0,8.001209 3.10126,15.230072 8.1152,20.507141 l -25.04046,43.856366 c 4.3008,2.024082 8.36023,4.557988 12.10514,7.521822 z m 15.22835,-78.3989147 c 2.19794,-11.4177976 9.98399,-14.3017336 15.99999,-14.7430746 1.83589,-0.136968 2.56,2.442595 0.93623,3.348105 -6.38171,3.55736097 -10.98605,8.7659465 -13.87154,12.8026954 -1.09348,1.5294749 -3.42674,0.4603644 -3.06468,-1.4077258 z m 71.40937,115.2166507 c -12.06126,0 -22.27566,7.97458 -26.24,19.088 l -34.90012,-3.58399 c 0,0.27393 0.0402,0.53646 0.0402,0.80659 0,4.733 -0.50103,9.35567 -1.408,13.81854 l 34.88549,3.58399 c 2.11017,13.92507 13.63383,24.60096 27.61874,24.60096 15.488004,0 28.02469,-13.04239 28.02469,-29.15514 0,-16.10134 -12.536686,-29.15895 -28.02103,-29.15895 z m -1.3568,11.21996 c -6.38172,3.55736 -10.98606,8.76594 -13.87155,12.80269 -1.09348,1.52948 -3.42674,0.46037 -3.06468,-1.40772 2.19794,-11.4178 9.984,-14.30174 16,-14.74308 1.83589,-0.13316 2.56,2.4426 0.93623,3.34811 z m -94.95406,103.47165 -7.80434,-35.47089 c -4.4032,1.59416 -8.9856,2.73936 -13.76549,3.31006 l 7.81532,35.47469 c -8.96,4.87758 -15.14423,14.5148 -15.14423,25.76899 0,16.11276 12.53668,29.14754 28.0576,29.14754 15.488,0 28.02468,-13.04239 28.02468,-29.14754 0.0183,-15.81599 -12.09417,-28.61868 -27.18354,-29.08285 z m -3.85097,12.95488 c -6.38171,3.55736 -10.98606,8.76595 -13.87154,12.8027 -1.09349,1.52947 -3.42675,0.46036 -3.06469,-1.40773 2.19794,-11.4178 9.984,-14.30173 16,-14.74307 1.83589,-0.13697 2.56,2.44259 0.93623,3.3481 z m -87.66537,-97.25483 -43.44321,15.14256 c -5.01394,-7.96696 -13.64114,-13.24784 -23.46057,-13.24784 -15.49166,0 -28.032,13.05 -28.032,29.16275 0,16.13178 12.53669,29.18178 28.032,29.18178 15.48069,0 28.05029,-13.05 28.05029,-29.18178 0,-0.67342 -0.13897,-1.29358 -0.19017,-1.95559 l 43.58217,-15.18061 c -1.96754,-4.41341 -3.52914,-9.05891 -4.53851,-13.92127 z m -68.37395,14.96374 c -6.38171,3.55737 -10.98606,8.76595 -13.87154,12.8027 -1.09349,1.52948 -3.42675,0.46036 -3.06469,-1.40773 2.19794,-11.41779 9.984,-14.30173 16,-14.74307 1.83589,-0.13697 2.56,2.44259 0.93623,3.3481 z"
       id="path3-4"
       style="stroke-width:3.73018" />
  </g>
</svg>
